<?xml version="1.0" encoding="UTF-8"?>
<svg xmlns="http://www.w3.org/2000/svg" width="1200" height="900" viewBox="0 0 1200 900" style="background:#F8F5EC"><rect x="40" y="40" width="1120" height="820" fill="#F8F5EC" stroke="#000000" stroke-width="8" stroke-linejoin="miter" /><rect x="40" y="40" width="1120" height="120" fill="#000000" stroke="#000000" stroke-width="8" stroke-linejoin="miter" /><text x="600" y="100" fill="#F8F5EC" font-size="52" font-family="Helvetica, Arial, sans-serif" font-weight="700" text-anchor="middle" dominant-baseline="central">GLENDALE SHOPPING GUIDE</text><rect x="120" y="220" width="240" height="240" fill="#D4FF5B" stroke="#000000" stroke-width="8" stroke-linejoin="miter" /><rect x="177.0" y="322.0" width="125.99999999999999" height="81.0" fill="#FF6B9D" stroke="#000000" stroke-width="5.333333333333333" stroke-linejoin="miter" /><line x1="204.0" y1="322.0" x2="222.0" y2="286.0" stroke="#000000" stroke-width="5.333333333333333" /><line x1="276.0" y1="322.0" x2="258.0" y2="286.0" stroke="#000000" stroke-width="5.333333333333333" /><text x="240" y="500" fill="#000000" font-size="28" font-family="Helvetica, Arial, sans-serif" font-weight="700" text-anchor="middle" dominant-baseline="central">GALLERIA FINDS</text><rect x="440" y="220" width="240" height="240" fill="#FF6B9D" stroke="#000000" stroke-width="8" stroke-linejoin="miter" /><polygon points="560,250.0 506.0,430.0 560,385.0 614.0,430.0" fill="#FF6B9D" stroke="#000000" stroke-width="5.333333333333333" /><rect x="546.5" y="295.0" width="27.0" height="54.0" fill="#F8F5EC" stroke="#000000" stroke-width="4.0" stroke-linejoin="miter" /><text x="560" y="500" fill="#000000" font-size="28" font-family="Helvetica, Arial, sans-serif" font-weight="700" text-anchor="middle" dominant-baseline="central">HOLIDAY FASHION</text><rect x="760" y="220" width="240" height="240" fill="#74B9FF" stroke="#000000" stroke-width="8" stroke-linejoin="miter" /><polygon points="808.0,376.0 880,250.0 952.0,376.0" fill="#B8F8E3" stroke="#000000" stroke-width="5.333333333333333" /><rect x="853.0" y="376.0" width="54.0" height="54.0" fill="#F8F5EC" stroke="#000000" stroke-width="4.0" stroke-linejoin="miter" /><text x="880" y="500" fill="#000000" font-size="28" font-family="Helvetica, Arial, sans-serif" font-weight="700" text-anchor="middle" dominant-baseline="central">HOME GOODS</text><rect x="120" y="540" width="240" height="240" fill="#FFE66D" stroke="#000000" stroke-width="8" stroke-linejoin="miter" /><rect x="213.0" y="588.0" width="54.0" height="125.99999999999999" fill="#A078FF" stroke="#000000" stroke-width="5.333333333333333" stroke-linejoin="miter" /><circle cx="240" cy="732.0" r="36.0" fill="#FF6B9D" stroke="#000000" stroke-width="4.0" /><text x="240" y="820" fill="#000000" font-size="28" font-family="Helvetica, Arial, sans-serif" font-weight="700" text-anchor="middle" dominant-baseline="central">BEAUTY BAR</text><rect x="440" y="540" width="240" height="240" fill="#5AC8FA" stroke="#000000" stroke-width="8" stroke-linejoin="miter" /><rect x="488.0" y="669.0" width="144.0" height="72.0" fill="#FFE66D" stroke="#000000" stroke-width="5.333333333333333" stroke-linejoin="miter" /><circle cx="524.0" cy="732.0" r="27.0" fill="#74B9FF" stroke="#000000" stroke-width="4.0" /><circle cx="596.0" cy="732.0" r="27.0" fill="#74B9FF" stroke="#000000" stroke-width="4.0" /><text x="560" y="820" fill="#000000" font-size="28" font-family="Helvetica, Arial, sans-serif" font-weight="700" text-anchor="middle" dominant-baseline="central">TOY BOUTIQUE</text><rect x="760" y="540" width="240" height="240" fill="#A078FF" stroke="#000000" stroke-width="8" stroke-linejoin="miter" /><rect x="817.0" y="597.0" width="125.99999999999999" height="125.99999999999999" fill="#F8F5EC" stroke="#000000" stroke-width="5.333333333333333" stroke-linejoin="miter" /><polygon points="826.0,705.0 880,624.0 934.0,705.0" fill="#5AC8FA" stroke="#000000" stroke-width="4.0" /><text x="880" y="820" fill="#000000" font-size="28" font-family="Helvetica, Arial, sans-serif" font-weight="700" text-anchor="middle" dominant-baseline="central">ART PRINTS</text></svg>