<?xml version="1.0" encoding="UTF-8"?>
<svg xmlns="http://www.w3.org/2000/svg" width="1200" height="900" viewBox="0 0 1200 900" style="background:#F8F5EC"><rect x="40" y="40" width="1120" height="820" fill="#F8F5EC" stroke="#000000" stroke-width="8" stroke-linejoin="miter" /><rect x="40" y="40" width="1120" height="120" fill="#000000" stroke="#000000" stroke-width="8" stroke-linejoin="miter" /><text x="600" y="100" fill="#F8F5EC" font-size="52" font-family="Helvetica, Arial, sans-serif" font-weight="700" text-anchor="middle" dominant-baseline="central">DOWNTOWN LOS ANGELES SHOPPING GUIDE</text><rect x="120" y="220" width="240" height="240" fill="#D4FF5B" stroke="#000000" stroke-width="8" stroke-linejoin="miter" /><rect x="168.0" y="268.0" width="144.0" height="144.0" fill="#74B9FF" stroke="#000000" stroke-width="5.333333333333333" stroke-linejoin="miter" /><rect x="204.0" y="304.0" width="72.0" height="72.0" fill="#F8F5EC" stroke="#000000" stroke-width="4.0" stroke-linejoin="miter" /><text x="240" y="500" fill="#000000" font-size="28" font-family="Helvetica, Arial, sans-serif" font-weight="700" text-anchor="middle" dominant-baseline="central">DESIGN DISTRICT</text><rect x="440" y="220" width="240" height="240" fill="#FF6B9D" stroke="#000000" stroke-width="8" stroke-linejoin="miter" /><rect x="488.0" y="277.0" width="54.0" height="125.99999999999999" fill="#B8F8E3" stroke="#000000" stroke-width="5.333333333333333" stroke-linejoin="miter" /><rect x="542.0" y="277.0" width="54.0" height="125.99999999999999" fill="#74B9FF" stroke="#000000" stroke-width="5.333333333333333" stroke-linejoin="miter" /><text x="560" y="500" fill="#000000" font-size="28" font-family="Helvetica, Arial, sans-serif" font-weight="700" text-anchor="middle" dominant-baseline="central">BOOK &amp; ART</text><rect x="760" y="220" width="240" height="240" fill="#74B9FF" stroke="#000000" stroke-width="8" stroke-linejoin="miter" /><polygon points="880,250.0 826.0,430.0 880,385.0 934.0,430.0" fill="#FF6B9D" stroke="#000000" stroke-width="5.333333333333333" /><rect x="866.5" y="295.0" width="27.0" height="54.0" fill="#F8F5EC" stroke="#000000" stroke-width="4.0" stroke-linejoin="miter" /><text x="880" y="500" fill="#000000" font-size="28" font-family="Helvetica, Arial, sans-serif" font-weight="700" text-anchor="middle" dominant-baseline="central">FASHION</text><rect x="120" y="540" width="240" height="240" fill="#FFE66D" stroke="#000000" stroke-width="8" stroke-linejoin="miter" /><rect x="168.0" y="606.0" width="144.0" height="108.0" fill="#5AC8FA" stroke="#000000" stroke-width="5.333333333333333" stroke-linejoin="miter" rx="12" ry="12" /><rect x="195.0" y="687.0" width="90.0" height="18.0" fill="#000000" stroke="#000000" stroke-width="4.0" stroke-linejoin="miter" /><text x="240" y="820" fill="#000000" font-size="28" font-family="Helvetica, Arial, sans-serif" font-weight="700" text-anchor="middle" dominant-baseline="central">TECH MARKET</text><rect x="440" y="540" width="240" height="240" fill="#5AC8FA" stroke="#000000" stroke-width="8" stroke-linejoin="miter" /><polygon points="560,570.0 497.0,660 560,750.0 623.0,660" fill="#FFE66D" stroke="#000000" stroke-width="5.333333333333333" /><circle cx="560" cy="660" r="27.0" fill="#A078FF" stroke="#000000" stroke-width="4.0" /><text x="560" y="820" fill="#000000" font-size="28" font-family="Helvetica, Arial, sans-serif" font-weight="700" text-anchor="middle" dominant-baseline="central">JEWELRY</text><rect x="760" y="540" width="240" height="240" fill="#A078FF" stroke="#000000" stroke-width="8" stroke-linejoin="miter" /><polygon points="808.0,696.0 880,570.0 952.0,696.0" fill="#B8F8E3" stroke="#000000" stroke-width="5.333333333333333" /><rect x="853.0" y="696.0" width="54.0" height="54.0" fill="#F8F5EC" stroke="#000000" stroke-width="4.0" stroke-linejoin="miter" /><text x="880" y="820" fill="#000000" font-size="28" font-family="Helvetica, Arial, sans-serif" font-weight="700" text-anchor="middle" dominant-baseline="central">HOME GOODS</text></svg>