<?xml version="1.0" encoding="UTF-8"?>
<svg xmlns="http://www.w3.org/2000/svg" width="1200" height="600" viewBox="0 0 1200 600" style="background:#F8F5EC"><rect x="40" y="40" width="1120" height="520" fill="#F8F5EC" stroke="#000000" stroke-width="8" stroke-linejoin="miter" /><rect x="40" y="40" width="1120" height="100" fill="#000000" stroke="#000000" stroke-width="8" stroke-linejoin="miter" /><text x="600" y="90" fill="#F8F5EC" font-size="48" font-family="Helvetica, Arial, sans-serif" font-weight="700" text-anchor="middle" dominant-baseline="central">WEATHER – LONG BEACH</text><rect x="120" y="200" width="180" height="180" fill="#D4FF5B" stroke="#000000" stroke-width="8" stroke-linejoin="miter" /><circle cx="210" cy="280" r="50" fill="#FFE66D" stroke="#000000" stroke-width="5.333333333333333" /><line x1="280.0" y1="280.0" x2="310.0" y2="280.0" stroke="#000000" stroke-width="4.0" /><line x1="259.49747468305833" y1="329.49747468305833" x2="280.71067811865476" y2="350.71067811865476" stroke="#000000" stroke-width="4.0" /><line x1="210.0" y1="350.0" x2="210.0" y2="380.0" stroke="#000000" stroke-width="4.0" /><line x1="160.50252531694167" y1="329.49747468305833" x2="139.28932188134524" y2="350.71067811865476" stroke="#000000" stroke-width="4.0" /><line x1="140.0" y1="280.0" x2="110.0" y2="280.0" stroke="#000000" stroke-width="4.0" /><line x1="160.50252531694167" y1="230.50252531694167" x2="139.28932188134524" y2="209.28932188134524" stroke="#000000" stroke-width="4.0" /><line x1="210.0" y1="210.0" x2="209.99999999999997" y2="180.0" stroke="#000000" stroke-width="4.0" /><line x1="259.49747468305833" y1="230.50252531694167" x2="280.71067811865476" y2="209.28932188134524" stroke="#000000" stroke-width="4.0" /><text x="210" y="420" fill="#000000" font-size="24" font-family="Helvetica, Arial, sans-serif" font-weight="700" text-anchor="middle" dominant-baseline="central">SUNNY</text><rect x="330" y="200" width="180" height="180" fill="#FF6B9D" stroke="#000000" stroke-width="8" stroke-linejoin="miter" /><circle cx="400" cy="270" r="40" fill="#FFE66D" stroke="#000000" stroke-width="5.333333333333333" /><circle cx="440" cy="290" r="40" fill="#F8F5EC" stroke="#000000" stroke-width="5.333333333333333" /><circle cx="380" cy="300" r="40" fill="#F8F5EC" stroke="#000000" stroke-width="5.333333333333333" /><text x="420" y="420" fill="#000000" font-size="24" font-family="Helvetica, Arial, sans-serif" font-weight="700" text-anchor="middle" dominant-baseline="central">PARTLY CLOUDY</text><rect x="540" y="200" width="180" height="180" fill="#74B9FF" stroke="#000000" stroke-width="8" stroke-linejoin="miter" /><circle cx="600" cy="280" r="40" fill="#B8F8E3" stroke="#000000" stroke-width="5.333333333333333" /><circle cx="660" cy="280" r="40" fill="#B8F8E3" stroke="#000000" stroke-width="5.333333333333333" /><circle cx="630" cy="260" r="40" fill="#B8F8E3" stroke="#000000" stroke-width="5.333333333333333" /><text x="630" y="420" fill="#000000" font-size="24" font-family="Helvetica, Arial, sans-serif" font-weight="700" text-anchor="middle" dominant-baseline="central">CLOUDY</text><rect x="750" y="200" width="180" height="180" fill="#FFE66D" stroke="#000000" stroke-width="8" stroke-linejoin="miter" /><circle cx="820" cy="260" r="40" fill="#5AC8FA" stroke="#000000" stroke-width="5.333333333333333" /><line x1="800" y1="300" x2="800" y2="360" stroke="#FF6B9D" stroke-width="4.0" /><line x1="840" y1="300" x2="840" y2="360" stroke="#FF6B9D" stroke-width="4.0" /><line x1="880" y1="300" x2="880" y2="360" stroke="#FF6B9D" stroke-width="4.0" /><text x="840" y="420" fill="#000000" font-size="24" font-family="Helvetica, Arial, sans-serif" font-weight="700" text-anchor="middle" dominant-baseline="central">LIGHT RAIN</text><rect x="960" y="200" width="180" height="180" fill="#5AC8FA" stroke="#000000" stroke-width="8" stroke-linejoin="miter" /><line x1="1050" y1="280" x2="1110.0" y2="280.0" stroke="#74B9FF" stroke-width="6.666666666666667" /><line x1="1050" y1="280" x2="1084.6410161513775" y2="300.0" stroke="#74B9FF" stroke-width="6.666666666666667" /><line x1="1050" y1="280" x2="1080.0" y2="331.9615242270663" stroke="#74B9FF" stroke-width="6.666666666666667" /><line x1="1050" y1="280" x2="1050.0" y2="320.0" stroke="#74B9FF" stroke-width="6.666666666666667" /><line x1="1050" y1="280" x2="1020.0" y2="331.9615242270663" stroke="#74B9FF" stroke-width="6.666666666666667" /><line x1="1050" y1="280" x2="1015.3589838486224" y2="300.0" stroke="#74B9FF" stroke-width="6.666666666666667" /><line x1="1050" y1="280" x2="990.0" y2="280.0" stroke="#74B9FF" stroke-width="6.666666666666667" /><line x1="1050" y1="280" x2="1015.3589838486224" y2="260.0" stroke="#74B9FF" stroke-width="6.666666666666667" /><line x1="1050" y1="280" x2="1020.0" y2="228.03847577293368" stroke="#74B9FF" stroke-width="6.666666666666667" /><line x1="1050" y1="280" x2="1050.0" y2="240.0" stroke="#74B9FF" stroke-width="6.666666666666667" /><line x1="1050" y1="280" x2="1080.0" y2="228.03847577293368" stroke="#74B9FF" stroke-width="6.666666666666667" /><line x1="1050" y1="280" x2="1084.6410161513775" y2="260.0" stroke="#74B9FF" stroke-width="6.666666666666667" /><text x="1050" y="420" fill="#000000" font-size="24" font-family="Helvetica, Arial, sans-serif" font-weight="700" text-anchor="middle" dominant-baseline="central">FESTIVE FLAKE</text></svg>