<?xml version="1.0" encoding="UTF-8"?>
<svg xmlns="http://www.w3.org/2000/svg" width="1200" height="900" viewBox="0 0 1200 900" style="background:#F8F5EC"><rect x="40" y="40" width="1120" height="820" fill="#F8F5EC" stroke="#000000" stroke-width="8" stroke-linejoin="miter" /><rect x="40" y="40" width="1120" height="120" fill="#000000" stroke="#000000" stroke-width="8" stroke-linejoin="miter" /><text x="600" y="100" fill="#F8F5EC" font-size="52" font-family="Helvetica, Arial, sans-serif" font-weight="700" text-anchor="middle" dominant-baseline="central">LONG BEACH HOLIDAY GIFT GUIDE</text><rect x="120" y="220" width="240" height="240" fill="#D4FF5B" stroke="#000000" stroke-width="8" stroke-linejoin="miter" /><polygon points="240,250.0 186.0,430.0 240,385.0 294.0,430.0" fill="#FF6B9D" stroke="#000000" stroke-width="5.333333333333333" /><rect x="226.5" y="295.0" width="27.0" height="54.0" fill="#F8F5EC" stroke="#000000" stroke-width="4.0" stroke-linejoin="miter" /><text x="240" y="500" fill="#000000" font-size="28" font-family="Helvetica, Arial, sans-serif" font-weight="700" text-anchor="middle" dominant-baseline="central">FASHION</text><rect x="440" y="220" width="240" height="240" fill="#FF6B9D" stroke="#000000" stroke-width="8" stroke-linejoin="miter" /><rect x="488.0" y="286.0" width="144.0" height="108.0" fill="#5AC8FA" stroke="#000000" stroke-width="5.333333333333333" stroke-linejoin="miter" rx="12" ry="12" /><rect x="515.0" y="367.0" width="90.0" height="18.0" fill="#000000" stroke="#000000" stroke-width="4.0" stroke-linejoin="miter" /><text x="560" y="500" fill="#000000" font-size="28" font-family="Helvetica, Arial, sans-serif" font-weight="700" text-anchor="middle" dominant-baseline="central">TECH</text><rect x="760" y="220" width="240" height="240" fill="#74B9FF" stroke="#000000" stroke-width="8" stroke-linejoin="miter" /><rect x="853.0" y="268.0" width="54.0" height="125.99999999999999" fill="#A078FF" stroke="#000000" stroke-width="5.333333333333333" stroke-linejoin="miter" /><circle cx="880" cy="412.0" r="36.0" fill="#FF6B9D" stroke="#000000" stroke-width="4.0" /><text x="880" y="500" fill="#000000" font-size="28" font-family="Helvetica, Arial, sans-serif" font-weight="700" text-anchor="middle" dominant-baseline="central">BEAUTY</text><rect x="120" y="540" width="240" height="240" fill="#FFE66D" stroke="#000000" stroke-width="8" stroke-linejoin="miter" /><rect x="168.0" y="597.0" width="54.0" height="125.99999999999999" fill="#B8F8E3" stroke="#000000" stroke-width="5.333333333333333" stroke-linejoin="miter" /><rect x="222.0" y="597.0" width="54.0" height="125.99999999999999" fill="#74B9FF" stroke="#000000" stroke-width="5.333333333333333" stroke-linejoin="miter" /><text x="240" y="820" fill="#000000" font-size="28" font-family="Helvetica, Arial, sans-serif" font-weight="700" text-anchor="middle" dominant-baseline="central">BOOKS</text><rect x="440" y="540" width="240" height="240" fill="#5AC8FA" stroke="#000000" stroke-width="8" stroke-linejoin="miter" /><polygon points="560,570.0 497.0,660 560,750.0 623.0,660" fill="#FFE66D" stroke="#000000" stroke-width="5.333333333333333" /><circle cx="560" cy="660" r="27.0" fill="#A078FF" stroke="#000000" stroke-width="4.0" /><text x="560" y="820" fill="#000000" font-size="28" font-family="Helvetica, Arial, sans-serif" font-weight="700" text-anchor="middle" dominant-baseline="central">JEWELRY</text><rect x="760" y="540" width="240" height="240" fill="#A078FF" stroke="#000000" stroke-width="8" stroke-linejoin="miter" /><polygon points="808.0,696.0 880,570.0 952.0,696.0" fill="#B8F8E3" stroke="#000000" stroke-width="5.333333333333333" /><rect x="853.0" y="696.0" width="54.0" height="54.0" fill="#F8F5EC" stroke="#000000" stroke-width="4.0" stroke-linejoin="miter" /><text x="880" y="820" fill="#000000" font-size="28" font-family="Helvetica, Arial, sans-serif" font-weight="700" text-anchor="middle" dominant-baseline="central">HOME</text><text x="600" y="840" fill="#000000" font-size="36" font-family="Helvetica, Arial, sans-serif" font-weight="700" text-anchor="middle" dominant-baseline="central">HOLIDAY GIFT GUIDE – LONG BEACH</text></svg>