<?xml version="1.0" encoding="UTF-8"?>
<svg xmlns="http://www.w3.org/2000/svg" width="1200" height="900" viewBox="0 0 1200 900" style="background:#F8F5EC"><rect x="40" y="40" width="1120" height="820" fill="#F8F5EC" stroke="#000000" stroke-width="8" stroke-linejoin="miter" /><rect x="40" y="40" width="1120" height="120" fill="#000000" stroke="#000000" stroke-width="8" stroke-linejoin="miter" /><text x="600" y="100" fill="#F8F5EC" font-size="52" font-family="Helvetica, Arial, sans-serif" font-weight="700" text-anchor="middle" dominant-baseline="central">DOWNTOWN BURBANK SHOPPING GUIDE</text><rect x="120" y="220" width="240" height="240" fill="#D4FF5B" stroke="#000000" stroke-width="8" stroke-linejoin="miter" /><rect x="168.0" y="349.0" width="144.0" height="72.0" fill="#FFE66D" stroke="#000000" stroke-width="5.333333333333333" stroke-linejoin="miter" /><circle cx="204.0" cy="412.0" r="27.0" fill="#74B9FF" stroke="#000000" stroke-width="4.0" /><circle cx="276.0" cy="412.0" r="27.0" fill="#74B9FF" stroke="#000000" stroke-width="4.0" /><text x="240" y="500" fill="#000000" font-size="28" font-family="Helvetica, Arial, sans-serif" font-weight="700" text-anchor="middle" dominant-baseline="central">ANIMATION SHOP</text><rect x="440" y="220" width="240" height="240" fill="#FF6B9D" stroke="#000000" stroke-width="8" stroke-linejoin="miter" /><rect x="488.0" y="277.0" width="54.0" height="125.99999999999999" fill="#B8F8E3" stroke="#000000" stroke-width="5.333333333333333" stroke-linejoin="miter" /><rect x="542.0" y="277.0" width="54.0" height="125.99999999999999" fill="#74B9FF" stroke="#000000" stroke-width="5.333333333333333" stroke-linejoin="miter" /><text x="560" y="500" fill="#000000" font-size="28" font-family="Helvetica, Arial, sans-serif" font-weight="700" text-anchor="middle" dominant-baseline="central">BOOK &amp; ART</text><rect x="760" y="220" width="240" height="240" fill="#74B9FF" stroke="#000000" stroke-width="8" stroke-linejoin="miter" /><circle cx="880" cy="340" r="81.0" fill="#A078FF" stroke="#000000" stroke-width="5.333333333333333" /><circle cx="880" cy="340" r="36.0" fill="#F8F5EC" stroke="#000000" stroke-width="4.0" /><text x="880" y="500" fill="#000000" font-size="28" font-family="Helvetica, Arial, sans-serif" font-weight="700" text-anchor="middle" dominant-baseline="central">COLLECTIBLES</text><rect x="120" y="540" width="240" height="240" fill="#FFE66D" stroke="#000000" stroke-width="8" stroke-linejoin="miter" /><polygon points="240,570.0 186.0,750.0 240,705.0 294.0,750.0" fill="#FF6B9D" stroke="#000000" stroke-width="5.333333333333333" /><rect x="226.5" y="615.0" width="27.0" height="54.0" fill="#F8F5EC" stroke="#000000" stroke-width="4.0" stroke-linejoin="miter" /><text x="240" y="820" fill="#000000" font-size="28" font-family="Helvetica, Arial, sans-serif" font-weight="700" text-anchor="middle" dominant-baseline="central">FASHION</text><rect x="440" y="540" width="240" height="240" fill="#5AC8FA" stroke="#000000" stroke-width="8" stroke-linejoin="miter" /><polygon points="488.0,696.0 560,570.0 632.0,696.0" fill="#B8F8E3" stroke="#000000" stroke-width="5.333333333333333" /><rect x="533.0" y="696.0" width="54.0" height="54.0" fill="#F8F5EC" stroke="#000000" stroke-width="4.0" stroke-linejoin="miter" /><text x="560" y="820" fill="#000000" font-size="28" font-family="Helvetica, Arial, sans-serif" font-weight="700" text-anchor="middle" dominant-baseline="central">HOME GOODS</text><rect x="760" y="540" width="240" height="240" fill="#A078FF" stroke="#000000" stroke-width="8" stroke-linejoin="miter" /><rect x="817.0" y="597.0" width="125.99999999999999" height="125.99999999999999" fill="#F8F5EC" stroke="#000000" stroke-width="5.333333333333333" stroke-linejoin="miter" /><polygon points="826.0,705.0 880,624.0 934.0,705.0" fill="#5AC8FA" stroke="#000000" stroke-width="4.0" /><text x="880" y="820" fill="#000000" font-size="28" font-family="Helvetica, Arial, sans-serif" font-weight="700" text-anchor="middle" dominant-baseline="central">GALLERY</text></svg>