<?xml version="1.0" encoding="UTF-8"?>
<svg xmlns="http://www.w3.org/2000/svg" width="1200" height="600" viewBox="0 0 1200 600" style="background:#F8F5EC"><rect x="40" y="40" width="1120" height="520" fill="#F8F5EC" stroke="#000000" stroke-width="8" stroke-linejoin="miter" /><rect x="40" y="40" width="1120" height="100" fill="#000000" stroke="#000000" stroke-width="8" stroke-linejoin="miter" /><text x="600" y="90" fill="#F8F5EC" font-size="48" font-family="Helvetica, Arial, sans-serif" font-weight="700" text-anchor="middle" dominant-baseline="central">SANTA MONICA TRANSPORTATION</text><rect x="120" y="200" width="180" height="180" fill="#D4FF5B" stroke="#000000" stroke-width="8" stroke-linejoin="miter" /><rect x="150" y="230" width="120" height="120" fill="#F8F5EC" stroke="#000000" stroke-width="5.333333333333333" stroke-linejoin="miter" /><text x="210" y="290" fill="#000000" font-size="72" font-family="Helvetica, Arial, sans-serif" font-weight="700" text-anchor="middle" dominant-baseline="central">P</text><text x="210" y="420" fill="#000000" font-size="30" font-family="Helvetica, Arial, sans-serif" font-weight="700" text-anchor="middle" dominant-baseline="central">P</text><rect x="330" y="200" width="180" height="180" fill="#FF6B9D" stroke="#000000" stroke-width="8" stroke-linejoin="miter" /><rect x="350" y="260" width="140" height="80" fill="#FFE66D" stroke="#000000" stroke-width="5.333333333333333" stroke-linejoin="miter" /><circle cx="380" cy="340" r="22" fill="#000000" stroke="#000000" stroke-width="4.0" /><circle cx="460" cy="340" r="22" fill="#000000" stroke="#000000" stroke-width="4.0" /><text x="420" y="420" fill="#000000" font-size="30" font-family="Helvetica, Arial, sans-serif" font-weight="700" text-anchor="middle" dominant-baseline="central">CAR</text><rect x="540" y="200" width="180" height="180" fill="#74B9FF" stroke="#000000" stroke-width="8" stroke-linejoin="miter" /><rect x="570" y="230" width="120" height="140" fill="#5AC8FA" stroke="#000000" stroke-width="5.333333333333333" stroke-linejoin="miter" /><rect x="590" y="330" width="80" height="40" fill="#000000" stroke="#000000" stroke-width="4.0" stroke-linejoin="miter" /><circle cx="600" cy="370" r="16" fill="#F8F5EC" stroke="#000000" stroke-width="4.0" /><circle cx="660" cy="370" r="16" fill="#F8F5EC" stroke="#000000" stroke-width="4.0" /><text x="630" y="420" fill="#000000" font-size="30" font-family="Helvetica, Arial, sans-serif" font-weight="700" text-anchor="middle" dominant-baseline="central">TRANSIT</text><rect x="750" y="200" width="180" height="180" fill="#FFE66D" stroke="#000000" stroke-width="8" stroke-linejoin="miter" /><line x1="840" y1="230" x2="840" y2="280" stroke="#000000" stroke-width="6.666666666666667" /><circle cx="840" cy="210" r="20" fill="#FF6B9D" stroke="#000000" stroke-width="4.0" /><line x1="840" y1="280" x2="810" y2="350" stroke="#000000" stroke-width="6.666666666666667" /><line x1="840" y1="280" x2="870" y2="350" stroke="#000000" stroke-width="6.666666666666667" /><text x="840" y="420" fill="#000000" font-size="30" font-family="Helvetica, Arial, sans-serif" font-weight="700" text-anchor="middle" dominant-baseline="central">WALK</text><rect x="960" y="200" width="180" height="180" fill="#5AC8FA" stroke="#000000" stroke-width="8" stroke-linejoin="miter" /><circle cx="1010" cy="330" r="28" fill="#F8F5EC" stroke="#000000" stroke-width="5.333333333333333" /><circle cx="1090" cy="330" r="28" fill="#F8F5EC" stroke="#000000" stroke-width="5.333333333333333" /><line x1="1010" y1="330" x2="1050" y2="290" stroke="#000000" stroke-width="6.666666666666667" /><line x1="1050" y1="290" x2="1090" y2="330" stroke="#000000" stroke-width="6.666666666666667" /><line x1="1050" y1="290" x2="1050" y2="230" stroke="#000000" stroke-width="6.666666666666667" /><text x="1050" y="420" fill="#000000" font-size="30" font-family="Helvetica, Arial, sans-serif" font-weight="700" text-anchor="middle" dominant-baseline="central">BIKE</text></svg>