<?xml version="1.0" encoding="UTF-8"?>
<svg xmlns="http://www.w3.org/2000/svg" width="1600" height="900" viewBox="0 0 1600 900" style="background:#F8F5EC"><rect x="40" y="40" width="1520" height="820" fill="#F8F5EC" stroke="#000000" stroke-width="8" stroke-linejoin="miter" /><text x="800" y="110" fill="#000000" font-size="48" font-family="Helvetica, Arial, sans-serif" font-weight="700" text-anchor="middle" dominant-baseline="central">GRIFFITH PARK HOLIDAY PATTERN PACK</text><rect x="120" y="180" width="320" height="640" fill="#F8F5EC" stroke="#000000" stroke-width="4.0" stroke-linejoin="miter" /><rect x="480" y="180" width="320" height="640" fill="#F8F5EC" stroke="#000000" stroke-width="4.0" stroke-linejoin="miter" /><rect x="840" y="180" width="320" height="640" fill="#F8F5EC" stroke="#000000" stroke-width="4.0" stroke-linejoin="miter" /><rect x="1200" y="180" width="320" height="640" fill="#F8F5EC" stroke="#000000" stroke-width="4.0" stroke-linejoin="miter" /><g transform="translate(120,180)"><rect x="0" y="0" width="320" height="640" fill="#FFE66D" stroke="#000000" stroke-width="4.0" stroke-linejoin="miter" /><rect x="70" y="96.0" width="20" height="24.0" fill="#D4FF5B" stroke="#000000" stroke-width="8" stroke-linejoin="miter" /><rect x="70" y="72.0" width="20" height="24.0" fill="#FF6B9D" stroke="#000000" stroke-width="8" stroke-linejoin="miter" /><rect x="70" y="48.0" width="20" height="24.0" fill="#D4FF5B" stroke="#000000" stroke-width="8" stroke-linejoin="miter" /><rect x="70" y="24.0" width="20" height="24.0" fill="#FF6B9D" stroke="#000000" stroke-width="8" stroke-linejoin="miter" /><rect x="70" y="0.0" width="20" height="24.0" fill="#D4FF5B" stroke="#000000" stroke-width="8" stroke-linejoin="miter" /><polygon points="80,0 131.42300877492315,18.38506663485547 121.13840701993851,42.89848881466276" fill="#D4FF5B" stroke="#000000" stroke-width="4.0" /><polygon points="80,0 155.17540966287268,8.208483439816048 140.14032773029814,19.153128026237447" fill="#D4FF5B" stroke="#000000" stroke-width="4.0" /><polygon points="80,0 155.17540966287268,-8.208483439816048 140.14032773029814,-19.153128026237447" fill="#D4FF5B" stroke="#000000" stroke-width="4.0" /><polygon points="80,0 131.42300877492315,-18.38506663485547 121.13840701993851,-42.89848881466276" fill="#D4FF5B" stroke="#000000" stroke-width="4.0" /><rect x="190" y="246.0" width="20" height="24.0" fill="#D4FF5B" stroke="#000000" stroke-width="8" stroke-linejoin="miter" /><rect x="190" y="222.0" width="20" height="24.0" fill="#FF6B9D" stroke="#000000" stroke-width="8" stroke-linejoin="miter" /><rect x="190" y="198.0" width="20" height="24.0" fill="#D4FF5B" stroke="#000000" stroke-width="8" stroke-linejoin="miter" /><rect x="190" y="174.0" width="20" height="24.0" fill="#FF6B9D" stroke="#000000" stroke-width="8" stroke-linejoin="miter" /><rect x="190" y="150.0" width="20" height="24.0" fill="#D4FF5B" stroke="#000000" stroke-width="8" stroke-linejoin="miter" /><polygon points="200,150 251.42300877492315,168.38506663485546 241.1384070199385,192.89848881466276" fill="#D4FF5B" stroke="#000000" stroke-width="4.0" /><polygon points="200,150 275.17540966287265,158.20848343981604 260.14032773029817,169.15312802623745" fill="#D4FF5B" stroke="#000000" stroke-width="4.0" /><polygon points="200,150 275.17540966287265,141.79151656018396 260.14032773029817,130.84687197376255" fill="#D4FF5B" stroke="#000000" stroke-width="4.0" /><polygon points="200,150 251.42300877492315,131.61493336514454 241.1384070199385,107.10151118533724" fill="#D4FF5B" stroke="#000000" stroke-width="4.0" /><rect x="70" y="396.0" width="20" height="24.0" fill="#D4FF5B" stroke="#000000" stroke-width="8" stroke-linejoin="miter" /><rect x="70" y="372.0" width="20" height="24.0" fill="#FF6B9D" stroke="#000000" stroke-width="8" stroke-linejoin="miter" /><rect x="70" y="348.0" width="20" height="24.0" fill="#D4FF5B" stroke="#000000" stroke-width="8" stroke-linejoin="miter" /><rect x="70" y="324.0" width="20" height="24.0" fill="#FF6B9D" stroke="#000000" stroke-width="8" stroke-linejoin="miter" /><rect x="70" y="300.0" width="20" height="24.0" fill="#D4FF5B" stroke="#000000" stroke-width="8" stroke-linejoin="miter" /><polygon points="80,300 131.42300877492315,318.3850666348555 121.13840701993851,342.89848881466276" fill="#D4FF5B" stroke="#000000" stroke-width="4.0" /><polygon points="80,300 155.17540966287268,308.20848343981606 140.14032773029814,319.1531280262374" fill="#D4FF5B" stroke="#000000" stroke-width="4.0" /><polygon points="80,300 155.17540966287268,291.79151656018394 140.14032773029814,280.8468719737626" fill="#D4FF5B" stroke="#000000" stroke-width="4.0" /><polygon points="80,300 131.42300877492315,281.6149333651445 121.13840701993851,257.10151118533724" fill="#D4FF5B" stroke="#000000" stroke-width="4.0" /><rect x="190" y="546.0" width="20" height="24.0" fill="#D4FF5B" stroke="#000000" stroke-width="8" stroke-linejoin="miter" /><rect x="190" y="522.0" width="20" height="24.0" fill="#FF6B9D" stroke="#000000" stroke-width="8" stroke-linejoin="miter" /><rect x="190" y="498.0" width="20" height="24.0" fill="#D4FF5B" stroke="#000000" stroke-width="8" stroke-linejoin="miter" /><rect x="190" y="474.0" width="20" height="24.0" fill="#FF6B9D" stroke="#000000" stroke-width="8" stroke-linejoin="miter" /><rect x="190" y="450.0" width="20" height="24.0" fill="#D4FF5B" stroke="#000000" stroke-width="8" stroke-linejoin="miter" /><polygon points="200,450 251.42300877492315,468.3850666348555 241.1384070199385,492.89848881466276" fill="#D4FF5B" stroke="#000000" stroke-width="4.0" /><polygon points="200,450 275.17540966287265,458.20848343981606 260.14032773029817,469.1531280262374" fill="#D4FF5B" stroke="#000000" stroke-width="4.0" /><polygon points="200,450 275.17540966287265,441.79151656018394 260.14032773029817,430.8468719737626" fill="#D4FF5B" stroke="#000000" stroke-width="4.0" /><polygon points="200,450 251.42300877492315,431.6149333651445 241.1384070199385,407.10151118533724" fill="#D4FF5B" stroke="#000000" stroke-width="4.0" /></g><g transform="translate(480,180)"><rect x="0" y="0" width="320" height="640" fill="#B8F8E3" stroke="#000000" stroke-width="4.0" stroke-linejoin="miter" /><rect x="64.0" y="118.0" width="32.0" height="48.0" fill="#FF6B9D" stroke="#000000" stroke-width="8" stroke-linejoin="miter" /><rect x="60.0" y="102.0" width="40.0" height="16.0" fill="#FFE66D" stroke="#000000" stroke-width="8" stroke-linejoin="miter" /><rect x="68.0" y="86.0" width="24.0" height="16.0" fill="#D4FF5B" stroke="#000000" stroke-width="8" stroke-linejoin="miter" /><rect x="70.0" y="166.0" width="20.0" height="28.0" fill="#FFE66D" stroke="#000000" stroke-width="8" stroke-linejoin="miter" /><rect x="64.0" y="194.0" width="12.0" height="28.0" fill="#D4FF5B" stroke="#000000" stroke-width="8" stroke-linejoin="miter" /><rect x="84.0" y="194.0" width="12.0" height="28.0" fill="#D4FF5B" stroke="#000000" stroke-width="8" stroke-linejoin="miter" /><circle cx="80" cy="134.0" r="9.600000000000001" fill="#F8F5EC" stroke="#000000" stroke-width="5.333333333333333" /><line x1="75.2" y1="136.0" x2="84.8" y2="136.0" stroke="#000000" stroke-width="4.0" /><line x1="76.8" y1="142.0" x2="79.2" y2="144.0" stroke="#000000" stroke-width="4.0" /><line x1="83.2" y1="142.0" x2="80.8" y2="144.0" stroke="#000000" stroke-width="4.0" /><rect x="224.0" y="118.0" width="32.0" height="48.0" fill="#74B9FF" stroke="#000000" stroke-width="8" stroke-linejoin="miter" /><rect x="220.0" y="102.0" width="40.0" height="16.0" fill="#A078FF" stroke="#000000" stroke-width="8" stroke-linejoin="miter" /><rect x="228.0" y="86.0" width="24.0" height="16.0" fill="#5AC8FA" stroke="#000000" stroke-width="8" stroke-linejoin="miter" /><rect x="230.0" y="166.0" width="20.0" height="28.0" fill="#A078FF" stroke="#000000" stroke-width="8" stroke-linejoin="miter" /><rect x="224.0" y="194.0" width="12.0" height="28.0" fill="#5AC8FA" stroke="#000000" stroke-width="8" stroke-linejoin="miter" /><rect x="244.0" y="194.0" width="12.0" height="28.0" fill="#5AC8FA" stroke="#000000" stroke-width="8" stroke-linejoin="miter" /><circle cx="240" cy="134.0" r="9.600000000000001" fill="#F8F5EC" stroke="#000000" stroke-width="5.333333333333333" /><line x1="235.2" y1="136.0" x2="244.8" y2="136.0" stroke="#000000" stroke-width="4.0" /><line x1="236.8" y1="142.0" x2="239.2" y2="144.0" stroke="#000000" stroke-width="4.0" /><line x1="243.2" y1="142.0" x2="240.8" y2="144.0" stroke="#000000" stroke-width="4.0" /><rect x="64.0" y="318.0" width="32.0" height="48.0" fill="#FF6B9D" stroke="#000000" stroke-width="8" stroke-linejoin="miter" /><rect x="60.0" y="302.0" width="40.0" height="16.0" fill="#FFE66D" stroke="#000000" stroke-width="8" stroke-linejoin="miter" /><rect x="68.0" y="286.0" width="24.0" height="16.0" fill="#D4FF5B" stroke="#000000" stroke-width="8" stroke-linejoin="miter" /><rect x="70.0" y="366.0" width="20.0" height="28.0" fill="#FFE66D" stroke="#000000" stroke-width="8" stroke-linejoin="miter" /><rect x="64.0" y="394.0" width="12.0" height="28.0" fill="#D4FF5B" stroke="#000000" stroke-width="8" stroke-linejoin="miter" /><rect x="84.0" y="394.0" width="12.0" height="28.0" fill="#D4FF5B" stroke="#000000" stroke-width="8" stroke-linejoin="miter" /><circle cx="80" cy="334.0" r="9.600000000000001" fill="#F8F5EC" stroke="#000000" stroke-width="5.333333333333333" /><line x1="75.2" y1="336.0" x2="84.8" y2="336.0" stroke="#000000" stroke-width="4.0" /><line x1="76.8" y1="342.0" x2="79.2" y2="344.0" stroke="#000000" stroke-width="4.0" /><line x1="83.2" y1="342.0" x2="80.8" y2="344.0" stroke="#000000" stroke-width="4.0" /><rect x="224.0" y="318.0" width="32.0" height="48.0" fill="#74B9FF" stroke="#000000" stroke-width="8" stroke-linejoin="miter" /><rect x="220.0" y="302.0" width="40.0" height="16.0" fill="#A078FF" stroke="#000000" stroke-width="8" stroke-linejoin="miter" /><rect x="228.0" y="286.0" width="24.0" height="16.0" fill="#5AC8FA" stroke="#000000" stroke-width="8" stroke-linejoin="miter" /><rect x="230.0" y="366.0" width="20.0" height="28.0" fill="#A078FF" stroke="#000000" stroke-width="8" stroke-linejoin="miter" /><rect x="224.0" y="394.0" width="12.0" height="28.0" fill="#5AC8FA" stroke="#000000" stroke-width="8" stroke-linejoin="miter" /><rect x="244.0" y="394.0" width="12.0" height="28.0" fill="#5AC8FA" stroke="#000000" stroke-width="8" stroke-linejoin="miter" /><circle cx="240" cy="334.0" r="9.600000000000001" fill="#F8F5EC" stroke="#000000" stroke-width="5.333333333333333" /><line x1="235.2" y1="336.0" x2="244.8" y2="336.0" stroke="#000000" stroke-width="4.0" /><line x1="236.8" y1="342.0" x2="239.2" y2="344.0" stroke="#000000" stroke-width="4.0" /><line x1="243.2" y1="342.0" x2="240.8" y2="344.0" stroke="#000000" stroke-width="4.0" /><rect x="64.0" y="518.0" width="32.0" height="48.0" fill="#FF6B9D" stroke="#000000" stroke-width="8" stroke-linejoin="miter" /><rect x="60.0" y="502.0" width="40.0" height="16.0" fill="#FFE66D" stroke="#000000" stroke-width="8" stroke-linejoin="miter" /><rect x="68.0" y="486.0" width="24.0" height="16.0" fill="#D4FF5B" stroke="#000000" stroke-width="8" stroke-linejoin="miter" /><rect x="70.0" y="566.0" width="20.0" height="28.0" fill="#FFE66D" stroke="#000000" stroke-width="8" stroke-linejoin="miter" /><rect x="64.0" y="594.0" width="12.0" height="28.0" fill="#D4FF5B" stroke="#000000" stroke-width="8" stroke-linejoin="miter" /><rect x="84.0" y="594.0" width="12.0" height="28.0" fill="#D4FF5B" stroke="#000000" stroke-width="8" stroke-linejoin="miter" /><circle cx="80" cy="534.0" r="9.600000000000001" fill="#F8F5EC" stroke="#000000" stroke-width="5.333333333333333" /><line x1="75.2" y1="536.0" x2="84.8" y2="536.0" stroke="#000000" stroke-width="4.0" /><line x1="76.8" y1="542.0" x2="79.2" y2="544.0" stroke="#000000" stroke-width="4.0" /><line x1="83.2" y1="542.0" x2="80.8" y2="544.0" stroke="#000000" stroke-width="4.0" /><rect x="224.0" y="518.0" width="32.0" height="48.0" fill="#74B9FF" stroke="#000000" stroke-width="8" stroke-linejoin="miter" /><rect x="220.0" y="502.0" width="40.0" height="16.0" fill="#A078FF" stroke="#000000" stroke-width="8" stroke-linejoin="miter" /><rect x="228.0" y="486.0" width="24.0" height="16.0" fill="#5AC8FA" stroke="#000000" stroke-width="8" stroke-linejoin="miter" /><rect x="230.0" y="566.0" width="20.0" height="28.0" fill="#A078FF" stroke="#000000" stroke-width="8" stroke-linejoin="miter" /><rect x="224.0" y="594.0" width="12.0" height="28.0" fill="#5AC8FA" stroke="#000000" stroke-width="8" stroke-linejoin="miter" /><rect x="244.0" y="594.0" width="12.0" height="28.0" fill="#5AC8FA" stroke="#000000" stroke-width="8" stroke-linejoin="miter" /><circle cx="240" cy="534.0" r="9.600000000000001" fill="#F8F5EC" stroke="#000000" stroke-width="5.333333333333333" /><line x1="235.2" y1="536.0" x2="244.8" y2="536.0" stroke="#000000" stroke-width="4.0" /><line x1="236.8" y1="542.0" x2="239.2" y2="544.0" stroke="#000000" stroke-width="4.0" /><line x1="243.2" y1="542.0" x2="240.8" y2="544.0" stroke="#000000" stroke-width="4.0" /></g><g transform="translate(840,180)"><rect x="0" y="0" width="320" height="640" fill="#D4FF5B" stroke="#000000" stroke-width="4.0" stroke-linejoin="miter" /><rect x="40" y="60" width="100" height="100" fill="#D4FF5B" stroke="#000000" stroke-width="4.0" stroke-linejoin="miter" /><line x1="90" y1="60" x2="90" y2="160" stroke="#000000" stroke-width="4.0" /><line x1="40" y1="110" x2="140" y2="110" stroke="#000000" stroke-width="4.0" /><rect x="180" y="60" width="100" height="100" fill="#FF6B9D" stroke="#000000" stroke-width="4.0" stroke-linejoin="miter" /><line x1="230" y1="60" x2="230" y2="160" stroke="#000000" stroke-width="4.0" /><line x1="180" y1="110" x2="280" y2="110" stroke="#000000" stroke-width="4.0" /><rect x="40" y="200" width="100" height="100" fill="#FF6B9D" stroke="#000000" stroke-width="4.0" stroke-linejoin="miter" /><line x1="90" y1="200" x2="90" y2="300" stroke="#000000" stroke-width="4.0" /><line x1="40" y1="250" x2="140" y2="250" stroke="#000000" stroke-width="4.0" /><rect x="180" y="200" width="100" height="100" fill="#74B9FF" stroke="#000000" stroke-width="4.0" stroke-linejoin="miter" /><line x1="230" y1="200" x2="230" y2="300" stroke="#000000" stroke-width="4.0" /><line x1="180" y1="250" x2="280" y2="250" stroke="#000000" stroke-width="4.0" /><rect x="40" y="340" width="100" height="100" fill="#74B9FF" stroke="#000000" stroke-width="4.0" stroke-linejoin="miter" /><line x1="90" y1="340" x2="90" y2="440" stroke="#000000" stroke-width="4.0" /><line x1="40" y1="390" x2="140" y2="390" stroke="#000000" stroke-width="4.0" /><rect x="180" y="340" width="100" height="100" fill="#FFE66D" stroke="#000000" stroke-width="4.0" stroke-linejoin="miter" /><line x1="230" y1="340" x2="230" y2="440" stroke="#000000" stroke-width="4.0" /><line x1="180" y1="390" x2="280" y2="390" stroke="#000000" stroke-width="4.0" /><rect x="40" y="480" width="100" height="100" fill="#FFE66D" stroke="#000000" stroke-width="4.0" stroke-linejoin="miter" /><line x1="90" y1="480" x2="90" y2="580" stroke="#000000" stroke-width="4.0" /><line x1="40" y1="530" x2="140" y2="530" stroke="#000000" stroke-width="4.0" /><rect x="180" y="480" width="100" height="100" fill="#5AC8FA" stroke="#000000" stroke-width="4.0" stroke-linejoin="miter" /><line x1="230" y1="480" x2="230" y2="580" stroke="#000000" stroke-width="4.0" /><line x1="180" y1="530" x2="280" y2="530" stroke="#000000" stroke-width="4.0" /></g><g transform="translate(1200,180)"><rect x="0" y="0" width="320" height="640" fill="#F8F5EC" stroke="#000000" stroke-width="4.0" stroke-linejoin="miter" /><rect x="20" y="20" width="120" height="120" fill="#D4FF5B" stroke="#000000" stroke-width="4.0" stroke-linejoin="miter" /><circle cx="80" cy="80" r="30" fill="#000000" stroke="#000000" stroke-width="4.0" /><rect x="170" y="20" width="120" height="120" fill="#FF6B9D" stroke="#000000" stroke-width="4.0" stroke-linejoin="miter" /><circle cx="230" cy="80" r="30" fill="#000000" stroke="#000000" stroke-width="4.0" /><rect x="20" y="170" width="120" height="120" fill="#FF6B9D" stroke="#000000" stroke-width="4.0" stroke-linejoin="miter" /><circle cx="80" cy="230" r="30" fill="#000000" stroke="#000000" stroke-width="4.0" /><rect x="170" y="170" width="120" height="120" fill="#74B9FF" stroke="#000000" stroke-width="4.0" stroke-linejoin="miter" /><circle cx="230" cy="230" r="30" fill="#000000" stroke="#000000" stroke-width="4.0" /><rect x="20" y="320" width="120" height="120" fill="#74B9FF" stroke="#000000" stroke-width="4.0" stroke-linejoin="miter" /><circle cx="80" cy="380" r="30" fill="#000000" stroke="#000000" stroke-width="4.0" /><rect x="170" y="320" width="120" height="120" fill="#FFE66D" stroke="#000000" stroke-width="4.0" stroke-linejoin="miter" /><circle cx="230" cy="380" r="30" fill="#000000" stroke="#000000" stroke-width="4.0" /><rect x="20" y="470" width="120" height="120" fill="#FFE66D" stroke="#000000" stroke-width="4.0" stroke-linejoin="miter" /><circle cx="80" cy="530" r="30" fill="#000000" stroke="#000000" stroke-width="4.0" /><rect x="170" y="470" width="120" height="120" fill="#5AC8FA" stroke="#000000" stroke-width="4.0" stroke-linejoin="miter" /><circle cx="230" cy="530" r="30" fill="#000000" stroke="#000000" stroke-width="4.0" /><text x="160" y="600" fill="#000000" font-size="36" font-family="Helvetica, Arial, sans-serif" font-weight="700" text-anchor="middle" dominant-baseline="central">CURATIONSLA</text></g></svg>