<?xml version="1.0" encoding="UTF-8"?>
<svg xmlns="http://www.w3.org/2000/svg" width="900" height="1400" viewBox="0 0 900 1400" style="background:#F8F5EC"><rect x="30" y="30" width="840" height="1340" fill="#F8F5EC" stroke="#000000" stroke-width="8" stroke-linejoin="miter" /><rect x="60" y="60" width="780" height="80" fill="#000000" stroke="#000000" stroke-width="8" stroke-linejoin="miter" /><text x="450" y="100" fill="#F8F5EC" font-size="44" font-family="Helvetica, Arial, sans-serif" font-weight="700" text-anchor="middle" dominant-baseline="central">CURATIONSLA × GRIFFITH PARK HOLIDAY 2025</text><line x1="140" y1="200" x2="760" y2="200" stroke="#000000" stroke-width="4.0" /><circle cx="140.0" cy="220" r="14" fill="#FF6B9D" stroke="#000000" stroke-width="4.0" /><circle cx="208.88888888888889" cy="220" r="14" fill="#74B9FF" stroke="#000000" stroke-width="4.0" /><circle cx="277.77777777777777" cy="220" r="14" fill="#FFE66D" stroke="#000000" stroke-width="4.0" /><circle cx="346.66666666666663" cy="220" r="14" fill="#D4FF5B" stroke="#000000" stroke-width="4.0" /><circle cx="415.55555555555554" cy="220" r="14" fill="#A078FF" stroke="#000000" stroke-width="4.0" /><circle cx="484.44444444444446" cy="220" r="14" fill="#FF6B9D" stroke="#000000" stroke-width="4.0" /><circle cx="553.3333333333333" cy="220" r="14" fill="#74B9FF" stroke="#000000" stroke-width="4.0" /><circle cx="622.2222222222222" cy="220" r="14" fill="#FFE66D" stroke="#000000" stroke-width="4.0" /><circle cx="691.1111111111111" cy="220" r="14" fill="#D4FF5B" stroke="#000000" stroke-width="4.0" /><circle cx="760.0" cy="220" r="14" fill="#A078FF" stroke="#000000" stroke-width="4.0" /><g transform="translate(120,320)"><rect x="0" y="320" width="140" height="320" fill="#74B9FF" stroke="#000000" stroke-width="8" stroke-linejoin="miter" /><rect x="28.0" y="360" width="28.0" height="32" fill="#F8F5EC" stroke="#000000" stroke-width="4.0" stroke-linejoin="miter" /><rect x="84.0" y="400" width="28.0" height="32" fill="#F8F5EC" stroke="#000000" stroke-width="4.0" stroke-linejoin="miter" /><rect x="180" y="280" width="180" height="360" fill="#5AC8FA" stroke="#000000" stroke-width="8" stroke-linejoin="miter" /><rect x="216.0" y="320" width="36.0" height="32" fill="#F8F5EC" stroke="#000000" stroke-width="4.0" stroke-linejoin="miter" /><rect x="288.0" y="360" width="36.0" height="32" fill="#F8F5EC" stroke="#000000" stroke-width="4.0" stroke-linejoin="miter" /><rect x="400" y="360" width="120" height="280" fill="#A078FF" stroke="#000000" stroke-width="8" stroke-linejoin="miter" /><rect x="424.0" y="400" width="24.0" height="32" fill="#F8F5EC" stroke="#000000" stroke-width="4.0" stroke-linejoin="miter" /><rect x="472.0" y="440" width="24.0" height="32" fill="#F8F5EC" stroke="#000000" stroke-width="4.0" stroke-linejoin="miter" /><rect x="240" y="420" width="160" height="220" fill="#FFE66D" stroke="#000000" stroke-width="8" stroke-linejoin="miter" /><text x="320" y="520" fill="#000000" font-size="28" font-family="Helvetica, Arial, sans-serif" font-weight="700" text-anchor="middle" dominant-baseline="central">OBSERVATORY GLOW</text></g><rect x="190" y="1052.0" width="20" height="48.0" fill="#FF6B9D" stroke="#000000" stroke-width="8" stroke-linejoin="miter" /><rect x="190" y="1004.0" width="20" height="48.0" fill="#D4FF5B" stroke="#000000" stroke-width="8" stroke-linejoin="miter" /><rect x="190" y="956.0" width="20" height="48.0" fill="#FF6B9D" stroke="#000000" stroke-width="8" stroke-linejoin="miter" /><rect x="190" y="908.0" width="20" height="48.0" fill="#D4FF5B" stroke="#000000" stroke-width="8" stroke-linejoin="miter" /><rect x="190" y="860.0" width="20" height="48.0" fill="#FF6B9D" stroke="#000000" stroke-width="8" stroke-linejoin="miter" /><polygon points="200,860 251.42300877492315,878.3850666348554 241.1384070199385,902.8984888146628" fill="#D4FF5B" stroke="#000000" stroke-width="4.0" /><polygon points="200,860 275.17540966287265,868.2084834398161 260.14032773029817,879.1531280262375" fill="#D4FF5B" stroke="#000000" stroke-width="4.0" /><polygon points="200,860 275.17540966287265,851.7915165601839 260.14032773029817,840.8468719737625" fill="#D4FF5B" stroke="#000000" stroke-width="4.0" /><polygon points="200,860 251.42300877492315,841.6149333651446 241.1384070199385,817.1015111853372" fill="#D4FF5B" stroke="#000000" stroke-width="4.0" /><rect x="690" y="1052.0" width="20" height="48.0" fill="#74B9FF" stroke="#000000" stroke-width="8" stroke-linejoin="miter" /><rect x="690" y="1004.0" width="20" height="48.0" fill="#FFE66D" stroke="#000000" stroke-width="8" stroke-linejoin="miter" /><rect x="690" y="956.0" width="20" height="48.0" fill="#74B9FF" stroke="#000000" stroke-width="8" stroke-linejoin="miter" /><rect x="690" y="908.0" width="20" height="48.0" fill="#FFE66D" stroke="#000000" stroke-width="8" stroke-linejoin="miter" /><rect x="690" y="860.0" width="20" height="48.0" fill="#74B9FF" stroke="#000000" stroke-width="8" stroke-linejoin="miter" /><polygon points="700,860 751.4230087749231,878.3850666348554 741.1384070199385,902.8984888146628" fill="#D4FF5B" stroke="#000000" stroke-width="4.0" /><polygon points="700,860 775.1754096628727,868.2084834398161 760.1403277302982,879.1531280262375" fill="#D4FF5B" stroke="#000000" stroke-width="4.0" /><polygon points="700,860 775.1754096628727,851.7915165601839 760.1403277302982,840.8468719737625" fill="#D4FF5B" stroke="#000000" stroke-width="4.0" /><polygon points="700,860 751.4230087749231,841.6149333651446 741.1384070199385,817.1015111853372" fill="#D4FF5B" stroke="#000000" stroke-width="4.0" /><rect x="196.0" y="972.0" width="48.0" height="72.0" fill="#FF6B9D" stroke="#000000" stroke-width="8" stroke-linejoin="miter" /><rect x="190.0" y="948.0" width="60.0" height="24.0" fill="#FFE66D" stroke="#000000" stroke-width="8" stroke-linejoin="miter" /><rect x="202.0" y="924.0" width="36.0" height="24.0" fill="#D4FF5B" stroke="#000000" stroke-width="8" stroke-linejoin="miter" /><rect x="205.0" y="1044.0" width="30.0" height="42.0" fill="#FFE66D" stroke="#000000" stroke-width="8" stroke-linejoin="miter" /><rect x="196.0" y="1086.0" width="18.0" height="42.0" fill="#D4FF5B" stroke="#000000" stroke-width="8" stroke-linejoin="miter" /><rect x="226.0" y="1086.0" width="18.0" height="42.0" fill="#D4FF5B" stroke="#000000" stroke-width="8" stroke-linejoin="miter" /><circle cx="220" cy="996.0" r="14.399999999999999" fill="#F8F5EC" stroke="#000000" stroke-width="5.333333333333333" /><line x1="212.8" y1="999.0" x2="227.2" y2="999.0" stroke="#000000" stroke-width="4.0" /><line x1="215.2" y1="1008.0" x2="218.8" y2="1011.0" stroke="#000000" stroke-width="4.0" /><line x1="224.8" y1="1008.0" x2="221.2" y2="1011.0" stroke="#000000" stroke-width="4.0" /><rect x="656.0" y="972.0" width="48.0" height="72.0" fill="#74B9FF" stroke="#000000" stroke-width="8" stroke-linejoin="miter" /><rect x="650.0" y="948.0" width="60.0" height="24.0" fill="#A078FF" stroke="#000000" stroke-width="8" stroke-linejoin="miter" /><rect x="662.0" y="924.0" width="36.0" height="24.0" fill="#5AC8FA" stroke="#000000" stroke-width="8" stroke-linejoin="miter" /><rect x="665.0" y="1044.0" width="30.0" height="42.0" fill="#A078FF" stroke="#000000" stroke-width="8" stroke-linejoin="miter" /><rect x="656.0" y="1086.0" width="18.0" height="42.0" fill="#5AC8FA" stroke="#000000" stroke-width="8" stroke-linejoin="miter" /><rect x="686.0" y="1086.0" width="18.0" height="42.0" fill="#5AC8FA" stroke="#000000" stroke-width="8" stroke-linejoin="miter" /><circle cx="680" cy="996.0" r="14.399999999999999" fill="#F8F5EC" stroke="#000000" stroke-width="5.333333333333333" /><line x1="672.8" y1="999.0" x2="687.2" y2="999.0" stroke="#000000" stroke-width="4.0" /><line x1="675.2" y1="1008.0" x2="678.8" y2="1011.0" stroke="#000000" stroke-width="4.0" /><line x1="684.8" y1="1008.0" x2="681.2" y2="1011.0" stroke="#000000" stroke-width="4.0" /><rect x="420" y="1080" width="80" height="80" fill="#FF6B9D" stroke="#000000" stroke-width="8" stroke-linejoin="miter" /><rect x="500" y="1100" width="100" height="100" fill="#D4FF5B" stroke="#000000" stroke-width="8" stroke-linejoin="miter" /><line x1="420" y1="1120" x2="500" y2="1120" stroke="#000000" stroke-width="4.0" /><line x1="550" y1="1100" x2="550" y2="1200" stroke="#000000" stroke-width="4.0" /><rect x="60" y="1200" width="720" height="80" fill="#000000" stroke="#000000" stroke-width="0" stroke-linejoin="miter" /><circle cx="78.0" cy="1240.0" r="12.0" fill="#F8F5EC" stroke="#000000" stroke-width="4.0" /><circle cx="114.0" cy="1240.0" r="12.0" fill="#F8F5EC" stroke="#000000" stroke-width="4.0" /><circle cx="150.0" cy="1240.0" r="12.0" fill="#F8F5EC" stroke="#000000" stroke-width="4.0" /><circle cx="186.0" cy="1240.0" r="12.0" fill="#F8F5EC" stroke="#000000" stroke-width="4.0" /><circle cx="222.0" cy="1240.0" r="12.0" fill="#F8F5EC" stroke="#000000" stroke-width="4.0" /><circle cx="258.0" cy="1240.0" r="12.0" fill="#F8F5EC" stroke="#000000" stroke-width="4.0" /><circle cx="294.0" cy="1240.0" r="12.0" fill="#F8F5EC" stroke="#000000" stroke-width="4.0" /><circle cx="330.0" cy="1240.0" r="12.0" fill="#F8F5EC" stroke="#000000" stroke-width="4.0" /><circle cx="366.0" cy="1240.0" r="12.0" fill="#F8F5EC" stroke="#000000" stroke-width="4.0" /><circle cx="402.0" cy="1240.0" r="12.0" fill="#F8F5EC" stroke="#000000" stroke-width="4.0" /><circle cx="438.0" cy="1240.0" r="12.0" fill="#F8F5EC" stroke="#000000" stroke-width="4.0" /><circle cx="474.0" cy="1240.0" r="12.0" fill="#F8F5EC" stroke="#000000" stroke-width="4.0" /><circle cx="510.0" cy="1240.0" r="12.0" fill="#F8F5EC" stroke="#000000" stroke-width="4.0" /><circle cx="546.0" cy="1240.0" r="12.0" fill="#F8F5EC" stroke="#000000" stroke-width="4.0" /><circle cx="582.0" cy="1240.0" r="12.0" fill="#F8F5EC" stroke="#000000" stroke-width="4.0" /><circle cx="618.0" cy="1240.0" r="12.0" fill="#F8F5EC" stroke="#000000" stroke-width="4.0" /><circle cx="654.0" cy="1240.0" r="12.0" fill="#F8F5EC" stroke="#000000" stroke-width="4.0" /><circle cx="690.0" cy="1240.0" r="12.0" fill="#F8F5EC" stroke="#000000" stroke-width="4.0" /><circle cx="726.0" cy="1240.0" r="12.0" fill="#F8F5EC" stroke="#000000" stroke-width="4.0" /><circle cx="762.0" cy="1240.0" r="12.0" fill="#F8F5EC" stroke="#000000" stroke-width="4.0" /><circle cx="798.0" cy="1240.0" r="12.0" fill="#F8F5EC" stroke="#000000" stroke-width="4.0" /><circle cx="834.0" cy="1240.0" r="12.0" fill="#F8F5EC" stroke="#000000" stroke-width="4.0" /><rect x="60" y="1260" width="780" height="80" fill="#000000" stroke="#000000" stroke-width="8" stroke-linejoin="miter" /><text x="450" y="1300" fill="#F8F5EC" font-size="48" font-family="Helvetica, Arial, sans-serif" font-weight="700" text-anchor="middle" dominant-baseline="central">LOS FELIZ VILLAGE</text></svg>