<?xml version="1.0" encoding="UTF-8"?>
<svg xmlns="http://www.w3.org/2000/svg" width="1200" height="900" viewBox="0 0 1200 900" style="background:#F8F5EC"><rect x="40" y="40" width="1120" height="820" fill="#F8F5EC" stroke="#000000" stroke-width="8" stroke-linejoin="miter" /><rect x="40" y="40" width="1120" height="120" fill="#000000" stroke="#000000" stroke-width="8" stroke-linejoin="miter" /><text x="600" y="100" fill="#F8F5EC" font-size="52" font-family="Helvetica, Arial, sans-serif" font-weight="700" text-anchor="middle" dominant-baseline="central">BEVERLY HILLS SHOPPING GUIDE</text><rect x="120" y="220" width="240" height="240" fill="#D4FF5B" stroke="#000000" stroke-width="8" stroke-linejoin="miter" /><polygon points="240,250.0 186.0,430.0 240,385.0 294.0,430.0" fill="#FF6B9D" stroke="#000000" stroke-width="5.333333333333333" /><rect x="226.5" y="295.0" width="27.0" height="54.0" fill="#F8F5EC" stroke="#000000" stroke-width="4.0" stroke-linejoin="miter" /><text x="240" y="500" fill="#000000" font-size="28" font-family="Helvetica, Arial, sans-serif" font-weight="700" text-anchor="middle" dominant-baseline="central">FASHION BOUTIQUE</text><rect x="440" y="220" width="240" height="240" fill="#FF6B9D" stroke="#000000" stroke-width="8" stroke-linejoin="miter" /><polygon points="560,250.0 497.0,340 560,430.0 623.0,340" fill="#FFE66D" stroke="#000000" stroke-width="5.333333333333333" /><circle cx="560" cy="340" r="27.0" fill="#A078FF" stroke="#000000" stroke-width="4.0" /><text x="560" y="500" fill="#000000" font-size="28" font-family="Helvetica, Arial, sans-serif" font-weight="700" text-anchor="middle" dominant-baseline="central">JEWELRY HOUSE</text><rect x="760" y="220" width="240" height="240" fill="#74B9FF" stroke="#000000" stroke-width="8" stroke-linejoin="miter" /><rect x="808.0" y="268.0" width="144.0" height="144.0" fill="#74B9FF" stroke="#000000" stroke-width="5.333333333333333" stroke-linejoin="miter" /><rect x="844.0" y="304.0" width="72.0" height="72.0" fill="#F8F5EC" stroke="#000000" stroke-width="4.0" stroke-linejoin="miter" /><text x="880" y="500" fill="#000000" font-size="28" font-family="Helvetica, Arial, sans-serif" font-weight="700" text-anchor="middle" dominant-baseline="central">DESIGN OBJECTS</text><rect x="120" y="540" width="240" height="240" fill="#FFE66D" stroke="#000000" stroke-width="8" stroke-linejoin="miter" /><rect x="213.0" y="588.0" width="54.0" height="125.99999999999999" fill="#A078FF" stroke="#000000" stroke-width="5.333333333333333" stroke-linejoin="miter" /><circle cx="240" cy="732.0" r="36.0" fill="#FF6B9D" stroke="#000000" stroke-width="4.0" /><text x="240" y="820" fill="#000000" font-size="28" font-family="Helvetica, Arial, sans-serif" font-weight="700" text-anchor="middle" dominant-baseline="central">BEAUTY BAR</text><rect x="440" y="540" width="240" height="240" fill="#5AC8FA" stroke="#000000" stroke-width="8" stroke-linejoin="miter" /><rect x="497.0" y="597.0" width="125.99999999999999" height="125.99999999999999" fill="#F8F5EC" stroke="#000000" stroke-width="5.333333333333333" stroke-linejoin="miter" /><polygon points="506.0,705.0 560,624.0 614.0,705.0" fill="#5AC8FA" stroke="#000000" stroke-width="4.0" /><text x="560" y="820" fill="#000000" font-size="28" font-family="Helvetica, Arial, sans-serif" font-weight="700" text-anchor="middle" dominant-baseline="central">ART GALLERY</text><rect x="760" y="540" width="240" height="240" fill="#A078FF" stroke="#000000" stroke-width="8" stroke-linejoin="miter" /><rect x="808.0" y="669.0" width="144.0" height="72.0" fill="#FFE66D" stroke="#000000" stroke-width="5.333333333333333" stroke-linejoin="miter" /><circle cx="844.0" cy="732.0" r="27.0" fill="#74B9FF" stroke="#000000" stroke-width="4.0" /><circle cx="916.0" cy="732.0" r="27.0" fill="#74B9FF" stroke="#000000" stroke-width="4.0" /><text x="880" y="820" fill="#000000" font-size="28" font-family="Helvetica, Arial, sans-serif" font-weight="700" text-anchor="middle" dominant-baseline="central">TOY EMPORIUM</text></svg>